<?xml version="1.0" encoding="utf-8"?>
<!-- Generator: Adobe Illustrator 21.0.0, SVG Export Plug-In . SVG Version: 6.00 Build 0)  -->
<svg version="1.1" id="_x31_" xmlns="http://www.w3.org/2000/svg" xmlns:xlink="http://www.w3.org/1999/xlink" x="0px" y="0px"
	 viewBox="0 0 363.2 354.9" style="enable-background:new 0 0 363.2 354.9;" xml:space="preserve">
<style type="text/css">
	.st0{fill:#153004;}
</style>
<g>
	<path class="st0" d="M340.4,58.5c0,0,8.5-1.4,10.4-3.7s3-5.5,1.6-6.5s-1.9,0.5-4.4-1.1s-1.4-4.6-1.4-4.6s2.1,1.7,4.7,2.8
		c2.6,1.2,4.2,4.5,1.7,9c-2.5,4.4-5.6,6.4-2.7,6.7s9.1-5.5,11.6-12.8s1-14.6,0-17.1c-1-2.4-2.3-4.4-2.3-4.4s0.7-1.1,0.7-1.2
		c0.6-1.5,0.4-3.1,0.3-4.7c-0.2-3.1-0.4-5.9-1.7-8.8c-0.7,0.5-0.8,1.5-0.9,2.3c-0.1-1.3-0.7-2.5-1.5-3.5c-0.1,0.1-0.2,0.2-0.3,0.3
		c0.2-0.1-3.4-3.1-3.7-3.3c-2.9-2.2-7.1-8.1-11.3-7.3c-0.1,3-5.5,0-7.2-0.2c0.1,0,0.1,0,0.2,0c-2.7,0.3-5.1-0.1-7.7-0.2
		c-3.1-0.1-6.3,0.3-9.4,0.8c-4.5,0.7-8.9,0.7-13.4,1.5c0.4,0.7,1.5,1.3,2.4,1.6c-1.4,0.2-3.1-0.2-4.4,0.2c0.4,0.3,0.5,0.8,1,1.1
		c-3.4,0-6.8,0.2-10.2,0.5C291,6,287.6,6,286.8,7.4c1.2,0.4,2.7,0.6,4,0.6c-1.3,0.6-2.8,0.6-4.1,0.9c0.2,0.3,0.2,0.6,0.5,0.8
		c-0.9,0.6-2.3,0.8-3.4,1c0.2,0.3,0.2,0.7,0.5,1c-1.8,0.6-4.4,3.7-4.5,5.8c-0.6,0.1-1.3,0.3-1.9,0.4c0.4,1,1.7,0.7,2.1,1.8
		c-2.9,0.6-5,2-7.8,2.6c-0.5,1-2.9,1-2.1,2.5c-0.7,0.2-1.5,0.3-2.3,0.4c0,1.1,1,1.2,1.5,1.9c-0.1-0.1-11.8,2.5-13,2.8
		c-5.3,1.2-10.7,2.4-16.1,3.5c-10.3,2.1-16.1,4.9-22.3,7.5s-6.2,3.8-6.2,3.8s-5.5,0.7-7,2.6c-1.5,1.9-4.8,1.4-7.8,2.9
		s-3.7,4.1-3.7,4.1s-4,1.4-6.4,3.8c-2.4,2.4-6.8,1.7-9.6,5.1c-1.5,1.8-3.6,2.7-5.2,4.3c-0.9,0.9-2.5,3.1-2.6,4.4s1.3,2.4,1.1,3.5
		c-0.4,2-3.9,2.5-2.2,5.3c1.7,2.9,1.7,2.9,1.7,2.9s-5,7.3-5.4,8.4c-0.4,1.2-7.5,8.2-10.3,11.9c-2.8,3.7-7.3,8.1-8,10.2
		S134.3,128,133,133c-1.4,5.1-2,8.6-0.9,8.8c1,0.2-3.3,7-4.3,12.6c-1.1,5.6-0.4,8.3-0.4,8.3s-2.9,4.5-3.6,7.6s1.7,2.9,1.7,2.9
		s-3.8,3.7-3.9,6.9s2.8,2.3,3.5,1.4c0.7-0.9-4.2,9.6-8.6,13.7c-4.3,4.1-9.2,11.4-13.1,19.3c-3.9,7.9-7.6,13.7-9.4,18.3
		c-1.9,4.5-1.8,4.7-1.3,6.9c0.6,2.1,5.1-3.1,5.1-3.1s-25.6,39.9-34,47.3s-26.3,35.6-37.5,45.3S0.5,352.7,0,354.8
		c-0.5,2.1,31.1-24.7,35.5-28.4c4.4-3.8-0.1,3.2,7.9-2.3c7.9-5.5,19.1-19.3,25.6-25.4c6.4-6.1,25.4-30.2,25.4-30.2
		s-20.5,31.6-24.7,38.7c-4.2,7.1-11.3,15.4-11.1,19s11.4-14.8,18.9-21.9s19.4-26,20.3-25.7c0.8,0.3,7.1-5.6,11-10.3
		c3.9-4.7,4.9-7.9,4.9-7.9s6.2-2.6,13.8-13.8c7.6-11.1,22.9-31.4,22.9-31.4s37.7-24.8,44.6-29.2c6.2-3.9,11.1-9.8,17.7-12.8
		c-0.2,0.3-0.2,0.9-0.3,1.2c0.1,0,0.6-0.2,0.7-0.2c0,0.3,0.1,0.6,0.2,0.9c0.2-0.2,0.5-0.3,0.7-0.5c0,0.4,0.2,0.8,0.2,1.2
		c0.3-0.4,0.9-0.6,1.1-1.1c-0.1,0.4,0,0.9-0.1,1.3c0.3-0.4,0.9-0.7,1.2-1.2c-0.1,0.4-0.2,1-0.3,1.4c2.7-1.5,4.3-4.8,6.9-6.5
		c-1.4,2-4.3,5-4.7,7.4c0.6-0.4,1.1-0.9,1.5-1.4c0.1,0.2,0.2,0.5,0.2,0.7c0.1,0.1,0.4-0.2,0.5,0c0,0.3,0.1,0.6,0.2,0.9
		c0.4-0.4,1.1-0.6,1.6-0.8c0.1,0.2,0.1,0.5,0.2,0.7c0.7-0.5,1.5-1.2,1.9-2c-0.3,0.5-0.3,1.2-0.3,1.8c1.6-0.8,2.9-2.3,4.2-3.5
		c-0.6,0.9-0.9,2-1.8,2.8c1.9-1.6,3.6-3.2,5.4-5c-0.4,1.2-0.7,2.6-1.4,3.7c2.2-0.9,3.4-3.1,5.1-4.7c1.1-1,3.1-1.9,3.9-3.2
		c0,0-3,4.7-2.5,8.9c0.5,4.1-0.7,6.9,1.8,10.6c2.4,3.6,4.4,5.7,8.3,5.3c3.9-0.5,2.2-1.4-0.8-2.7s-3.1-4.3-3.1-4.3s3.6-1.4,2.2-3.8
		c-1.4-2.4-1.4-2.4-1.4-2.4s2.7-2.1,1.5-4.1c-1.1-2,1.3-1.6,2.9-4.1c1.6-2.5,1.8-2.5,5.2-1.3s2.1,5.5,5.3,6.2
		c3.1,0.7,1.6,0.1,4.2,2.1c2.5,2,4.4,0.9,4.4,0.9s0.4,1.1,2.4,2.2c2,1.1,0.2,1,2.6,2.6c2.5,1.6,4.6,0.8,4.6,0.8s1.6,3.6-0.6,4.7
		s-3.9,2.1-2.3,2.8c1.5,0.8,6.6-1.3,6.8-6.4c0.2-5.1-2.1-5.1-2.1-5.1s0.8-1.1-2-3.3s-3.1-2.9-4.7-3s-3.3-1.7-4.3-2.7s-1-5.1-3.7-6.2
		c-2.6-1.2-5.4-0.9-7.6-2.2c-1-0.6-2.6-2.2-2.7-3.4c-0.2-1.8,0.7-1.6,1.9-2.7c0.1,0.2,0.1,0.3,0.2,0.5c0.6-0.3,0.9-1.2,1.2-1.9
		c0.1,0.2,0.1,0.3,0.2,0.5c0.4-0.5,0.8-1.1,1-1.7c0,0.3,0.2,0.7,0.3,1.1c1.5-1.7,3.4-3.3,4.2-5.5c0.3-1,0.1-1.9,0.3-2.8
		c0.2-0.6,1.6-2.3,1.4-2.7c0.1,0.2,0.3,0.5,0.4,0.8c0.5-0.5,0.8-1.3,0.8-2.1c0,0.4,0.2,0.9,0.2,1.3c2.9-2.2,1.6-5.4,2.9-8.2
		c0.6-1.2,1.7-2.3,2.5-3.4c1-1.2,2.7-4.8,4.1-5.3c-0.1,0.8-0.5,1.5-0.5,2.3c4.8-3.3,6.7-8.5,9-13.5c2-4.6,5.5-8.6,6.9-13.4
		c0.9-3.2-0.5,5.5-0.4,7.3s3.7-3.2,3.9-6.5c0.3-3.3,0.8-6,0.8-6s-0.6,7.1-0.2,8.5c0.1,0.2,0.1,0.4,0.3,0.5c1.5-1.1,2.3-4.2,3.3-5.9
		c0.6-0.9,1.6-1.6,2.2-2.5c1.4-2,1.2-4.5,2.4-6.4c0.5,1.5,0,3,0.2,4.5c2.5-1.8,2.8-8.4,6.3-9c0,1.4-1.5,2.9-1.2,4.2
		c2.9-1.1,5.4-5.3,6.4-8c0.5-1.4,0.3-3.1,2-3.7c1.5-0.6,1.6-0.1,2.1,1.3c0.3,0,0.6-0.1,0.9-0.3c0,0.1,0.1,0.2,0.1,0.3
		c0.8-0.2,1.4-0.9,1.9-1.6c-0.3,0.5-0.2,0.9-0.3,1.3c2.9-1.1,6.7-5.8,6.7-8.9c0.1-4.2,3.5-3,6.4-6.3
		C337.4,62.2,340.4,58.5,340.4,58.5z"/>
	<path class="st0" d="M206.7,188c0,0-1.1-0.8,0.8-3.8c1.9-2.9,2-3.8,3.5-4.4c1.5-0.7,2.6-2.6,3.2-3.9c0.6-1.3-0.7-5.1,1.4-7.1
		c2.1-2,4.8-2.6,6.5-4.5c0.8-0.9,1.7-2.9,1.5-4.1c-0.1-0.3-0.1-0.5-0.2-0.6c0.8-0.2,1.7-0.4,2.5-0.6c6.2-0.5,4.5-0.6,2.4-0.4
		c0.6-0.1,1.1-0.2,1.7-0.3c0.2,0,0.5-0.1,0.7-0.1c1.4,1.9,2.9,3.6,4.5,5.4c-0.8,2-1.4,4-2,6c-0.3-0.1-0.5-0.3-0.8-0.5
		c-2.3-1.8-2.5-1.8-5.4,0.5c-2.8,2.3-0.2,5.9-3,7.5c-2.7,1.7-1.5,0.7-3.3,3.4s-3.9,2.3-3.9,2.3s0,1.2-1.5,2.9s0.2,1-1.7,3.3
		c-1.8,2.3-4,2.3-4,2.3s-0.4,3.9,2.1,4.3c2.5,0.4,4.3,0.7,3.1,1.9s-6.7,0.9-8.5-3.8C204.6,188.7,206.7,188,206.7,188z"/>
	<path class="st0" d="M261.4,166.8c-2.5,1.2-4.3-2.5-7.3-1.4c-0.9,0.3-1.5,0.5-1.9,0.7c-1.3-0.2-2.6-0.2-3.9,0
		c-1.1,0.2-2.1,0.4-3.2,0.7c-0.5-1.4-1.1-2.8-1.7-4.1c0.1-0.2,0.3-0.3,0.4-0.5c0.3-0.4,0.6-0.7,1-1.1c-1.1,1.5-1.7,2.8,1.4-1.6
		c0.5-0.5,1-1.1,1.5-1.6c0.1,0.1,0.2,0.3,0.4,0.5c0.9,0.8,2.9,1,3.9,0.9c2.2-0.4,3.9-2.1,6.4-2.7c2.5-0.6,5,2.2,6.3,2.4
		s3.3,0.4,4.5-0.5c1.2-0.8,1.8-0.5,5-0.5s3.3,1.2,3.3,1.2s1.5-1.2,4.5,2.4c3,3.6,0.9,7.9-0.6,8.2s-0.9-1.2-0.2-3.3
		c0.7-2-2.5-3.7-2.5-3.7s-0.9,1.7-3.6,1.9c-2.6,0.2-1.4-0.7-3.3-0.4c-2,0.3-2.9-0.2-2.9-0.2s-0.5,1.8-3.4,1.8
		C262.6,166,263.9,165.5,261.4,166.8z"/>
</g>
</svg>
