<?xml version="1.0" encoding="utf-8"?>
<!-- Generator: Adobe Illustrator 21.0.0, SVG Export Plug-In . SVG Version: 6.00 Build 0)  -->
<svg version="1.1" id="_x31_" xmlns="http://www.w3.org/2000/svg" xmlns:xlink="http://www.w3.org/1999/xlink" x="0px" y="0px"
	 viewBox="0 0 415.9 207.9" style="enable-background:new 0 0 415.9 207.9;" xml:space="preserve">
<style type="text/css">
	.st0{fill:#153004;}
</style>
<g>
	<path class="st0" d="M336.1,94.7c0.5-1,1.5-9.7-1.2-14.1s-6.3-6.5-6.3-6.5s-0.7-6.8-3.6-10.7s-8-4.1-13.3-7.5s-8-11.9-12.1-16.2
		s-11.6-9.2-16.7-10.2s-14.8-8-19.9-13.1s-13.8-8.5-24.5-9.7s-21.8-4.8-33.7-6.3s-25.9,1.5-33.7,4.8c-7.8,3.4-16.7,3.9-31,9.2
		s-21.6,14.1-28.6,22.1S92.1,50.1,86.1,54.7c-6.1,4.6-4.4,10.4-10.7,13.8c-6.3,3.4-14.5,1-17.9,9.2C54,85.9,55.4,87.9,55.2,91
		c-0.2,3.2-2.9,2.2-5.8,3.6c-2.9,1.5-5.8,3.9-14.1,4.1c-8.2,0.2-11.1,0.5-15.8,4.8c-4.6,4.4-6.1,3.3-9.7,3s-7.3,0.9-4.1,4.5
		s5.8,5.6,4.8,8s-4.8,2.2-7.8,3.9c-2.9,1.7-4.6,2.9,0,5.1s9.5,1.2,9,2.7s-6.3,1.9-3.4,4.8c2.9,2.9,6.3,4.1,10.4,3.2
		c4.1-1,5.6-1.5,6.8,0.3c1.2,1.9,1.9,2,7.8,0c5.8-2,10.2-2.3,14.1-4.4c3.9-2.2,9.9-3.6,13.6-4.1c3.6-0.5,7.5-2.4,7.5-2.4
		s2.4,4.6,8,6.5s1.5,4.6,3.4,9.2c1.9,4.6,3.2,3.4-5.8,5.1c-9,1.7-15.3,2.7-22.1,6.1c-6.8,3.4-10.9,4.4-9.2,12.8
		c1.7,8.5,4.1,5.8,0.2,10.9c-3.9,5.1-7,7.5-5.6,12.6c1.5,5.1,4.1,0.5,7.3-2.2s5.1-4.8,5.8-3.6s2.7,2.7,2.7,2.7s-4.6,1.7-7,5.4
		c-2.4,3.8-6.8,8.4-2.2,8.6c4.6,0.2,10.9-1.7,12.8-3.4c1.9-1.7,3.2-1.7,3.2-1.7s-1.5,4.4-7.5,6.5c-6.1,2.2,1,5.1,5.6,3.9
		c4.6-1.2,9.5-4.4,12.6-7c3.2-2.7,9.2-7.8,9.5-10.2c0.2-2.4,2.7,2.9,5.6-1.9c2.9-4.8,3.9,0.5,9-1s4.8-2.2,8.7-4.1
		c3.9-1.9,11.6-4.1,15-7s8-3.9,11.6-6.5c3.6-2.7,6.1-6.3,6.1-6.3s4.4,3.6,8.5,4.8s2.7,3.4,7.5,6.1c4.8,2.7,8.2,2.9,13.3,5.3
		c5.1,2.4,18.2,4.1,37.3,4.6s25.9-2.4,30.8-2.9c4.8-0.5,21.1-4.4,27.6-8.2c6.5-3.9,4.1-6.5,14.3-5.3c10.2,1.2,18.4-3.2,24.2-6.1
		c5.8-2.9,5.8-2.4,8.7-4.8c2.9-2.4,1.7-0.5,4.8-1.5c3.2-1,2.7-3.2,5.1-1s4.4,3.9,5.8,2.2s2.2-0.7,2.4,4.4c0.2,5.1,3.4,8.5,7.8,11.9
		s4.1,6.5,13.3,9c9.2,2.4,17.5-0.5,24.2-2.9c6.8-2.4,6.8-3.6,8-3.2c1.2,0.5,7.3-1,4.4-3.9s-3.4-1.5-4.8-3.2
		c-1.5-1.7-3.4-2.2-4.8-5.6c-1.5-3.4-0.7-5.3-3.9-8.5c-3.2-3.2-4.1-3.2-3.9-5.3c0.2-2.2,2.2-2.4-1.2-6.8s-4.1-2.7-4.8-6.1
		c-0.7-3.4,1-2.4-3.2-7.5s-4.6-9.2-8.7-13.1s-4.4-5.1-8.7-8c-4.4-2.9-9.5-4-9.5-4L336.1,94.7z"/>
	<path class="st0" d="M329.3,77.6c3-0.4,13.5-1.3,19.9-7.6c6.5-6.3,16.3-2.1,24.2-2.2c7.9-0.1,12.3-0.5,19.5,2.2s15.8,6.8,16.4,8.7
		s6,1.3,6.6,7s-4.2,7.6-5.3,9.3c-1.1,1.7,0.4,3.5-0.5,5.4s-5.1,3.9-6.6,5.1s3.2-0.4,4.7-1.1c1.5-0.6,3.1,2.9-2.6,6.3
		c-5.6,3.4-6.5,4.1-8.6,7.2c-2.1,3.2-3.3,6.9-11.5,8.4s-37.6-2.3-50.7-9.4C321.7,109.7,329.3,77.6,329.3,77.6z"/>
</g>
</svg>
